# Blender v2.80 (sub 75) OBJ File: 'pine.blend'
# www.blender.org
mtllib Pine_3.mtl
o Pine_3
v -0.000000 -0.665673 -0.545371
v -0.000000 5.858652 -0.747735
v 0.510401 -0.645642 -0.251372
v 0.301156 5.870471 -0.574264
v 0.510401 -0.605578 0.336625
v 0.301156 5.894110 -0.227324
v -0.000000 -0.585546 0.630623
v -0.000000 5.905930 -0.053853
v -0.510401 -0.605578 0.336625
v -0.301156 5.894110 -0.227324
v -0.510401 -0.645642 -0.251372
v -0.301156 5.870471 -0.574264
v 1.666860 5.150600 -1.434748
v -0.000000 5.077096 -2.513547
v 1.643187 5.930344 0.148197
v -0.000000 5.371114 1.801651
v -1.368853 5.859605 0.722851
v -1.872868 5.150600 -1.096485
v 0.425920 7.948451 -0.788048
v -0.000000 7.931735 -1.033384
v 0.425919 7.981883 -0.297376
v -0.000000 7.998600 -0.052041
v -0.425919 7.981883 -0.297376
v -0.425919 7.948451 -0.788048
v -0.126652 11.419557 -0.851372
v -0.126652 11.429498 -0.705464
v -0.000000 11.434468 -0.632511
v 0.126652 11.429498 -0.705464
v -0.000000 11.414586 -0.924325
v 0.126652 11.419557 -0.851372
v 1.565940 6.879212 -1.345589
v 0.027752 6.819742 -2.218405
v 0.962759 7.624146 0.400045
v 0.027752 7.057622 1.272861
v -1.487515 6.998152 0.400044
v -1.879320 6.879212 -1.345588
v 0.209541 10.210011 -0.800866
v 0.027752 10.202876 -0.905579
v 0.209541 10.224280 -0.591439
v 0.027752 10.231416 -0.486726
v -0.154037 10.224280 -0.591439
v -0.154037 10.210011 -0.800866
v -0.000000 9.233791 -1.813033
v -0.360123 0.954757 -0.313300
v -0.369165 0.988430 0.180900
v 0.975185 9.102165 -1.096507
v 1.022900 9.354229 -0.045416
v 0.035373 1.005266 0.428000
v 0.438355 0.988430 0.180900
v -0.000000 9.294884 0.402987
v -1.022900 9.354229 -0.045416
v 0.464356 0.954757 -0.313300
v -0.403569 3.162969 -0.393328
v -1.022900 9.273937 -1.223827
v -0.000000 10.741795 -1.521688
v -0.595888 10.768577 -1.128619
v -0.682395 10.837586 -0.647613
v -0.000000 10.848923 -0.134290
v 0.682395 10.822141 -0.342480
v 0.682395 10.768577 -1.128619
v 0.468484 13.345565 -0.893602
v -0.397304 3.187088 -0.039338
v -0.075964 3.199148 0.137658
v 0.239429 3.187088 -0.039337
v 0.231312 3.162969 -0.393328
v -0.090028 3.150909 -0.570324
v 0.059817 0.937921 -0.560400
v -0.348175 2.021601 -0.330308
v -0.345976 2.047720 0.053042
v -0.015415 2.060780 0.244717
v 0.313693 2.047720 0.053042
v 0.312108 2.021601 -0.330308
v -0.019067 2.008541 -0.521983
vt 0.222571 0.756212
vt 0.222222 0.849043
vt 0.213640 0.847969
vt 0.213815 0.755116
vt 0.196475 0.847969
vt 0.196301 0.755116
vt 0.187893 0.849043
vt 0.187544 0.756212
vt 0.143851 0.756212
vt 0.143502 0.849043
vt 0.134920 0.847969
vt 0.135094 0.755116
vt 0.766730 0.228225
vt 0.760162 0.232756
vt 0.717657 0.209108
vt 0.758502 0.180929
vt 0.117755 0.847969
vt 0.117580 0.755116
vt 0.109172 0.849043
vt 0.108824 0.756212
vt 0.278505 0.623428
vt 0.312592 0.640243
vt 0.312592 0.673874
vt 0.278505 0.690689
vt 0.244418 0.673874
vt 0.244418 0.640243
vt 0.809210 0.232756
vt 0.809210 0.241818
vt 0.766730 0.265466
vt 0.766730 0.209108
vt 0.640879 0.224382
vt 0.677583 0.180929
vt 0.717657 0.241528
vt 0.709310 0.251410
vt 0.719594 0.145945
vt 0.756298 0.102491
vt 0.796372 0.163091
vt 0.788025 0.172973
vt 0.638942 0.259366
vt 0.708870 0.259366
vt 0.638942 0.180929
vt 0.640879 0.145945
vt 0.709310 0.172973
vt 0.708870 0.180929
vt 0.717657 0.180929
vt 0.787585 0.180929
vt 0.677583 0.102491
vt 0.717657 0.163091
vt 0.760162 0.241818
vt 0.717657 0.265466
vt 0.766730 0.246350
vt 0.758502 0.293646
vt 0.815768 0.246350
vt 0.807517 0.293646
vt 0.815768 0.228225
vt 0.807517 0.180929
vt 0.915192 0.311313
vt 0.915192 0.324130
vt 0.879208 0.340520
vt 0.879208 0.294923
vt 0.224024 0.717109
vt 0.214541 0.715923
vt 0.677104 0.371835
vt 0.673145 0.369100
vt 0.683862 0.343790
vt 0.706138 0.359180
vt 0.916404 0.232935
vt 0.925680 0.239343
vt 0.912207 0.272124
vt 0.879208 0.249325
vt 0.924480 0.330538
vt 0.912254 0.363319
vt 0.810363 0.312275
vt 0.810363 0.316086
vt 0.790372 0.324448
vt 0.790372 0.303913
vt 0.657224 0.270742
vt 0.702382 0.259366
vt 0.702382 0.339786
vt 0.696964 0.341150
vt 0.834050 0.276728
vt 0.879208 0.265352
vt 0.879208 0.345772
vt 0.873790 0.347137
vt 0.834050 0.192305
vt 0.879208 0.180929
vt 0.879208 0.261348
vt 0.873790 0.262713
vt 0.815768 0.298726
vt 0.871597 0.349776
vt 0.815768 0.214303
vt 0.871597 0.265352
vt 0.638942 0.292740
vt 0.694771 0.343790
vt 0.916404 0.220118
vt 0.879208 0.203728
vt 0.813121 0.317992
vt 0.805233 0.334715
vt 0.924480 0.304905
vt 0.912254 0.272124
vt 0.669180 0.377306
vt 0.673145 0.380041
vt 0.661250 0.405352
vt 0.638942 0.389961
vt 0.925680 0.213710
vt 0.912207 0.180929
vt 0.793135 0.357155
vt 0.793135 0.353344
vt 0.813120 0.344982
vt 0.813120 0.365517
vt 0.756519 0.346948
vt 0.755007 0.348799
vt 0.717657 0.316532
vt 0.729868 0.301579
vt 0.835234 0.155794
vt 0.833722 0.157645
vt 0.796372 0.125378
vt 0.808583 0.110425
vt 0.877861 0.155794
vt 0.876349 0.157645
vt 0.839000 0.125378
vt 0.851211 0.110425
vt 0.195575 0.715923
vt 0.839000 0.154811
vt 0.839000 0.102491
vt 0.881627 0.154811
vt 0.881627 0.102491
vt 0.669180 0.371835
vt 0.638942 0.359180
vt 0.677104 0.377306
vt 0.706138 0.389961
vt 0.661250 0.343790
vt 0.813121 0.310369
vt 0.805233 0.293646
vt 0.683862 0.405352
vt 0.881627 0.114356
vt 0.890925 0.105396
vt 0.911715 0.175091
vt 0.760285 0.345966
vt 0.760285 0.293646
vt 0.911715 0.114356
vt 0.921013 0.105396
vt 0.941803 0.175091
vt 0.941803 0.102491
vt 0.911715 0.102491
vt 0.760285 0.305511
vt 0.769583 0.296550
vt 0.790372 0.366245
vt 0.790372 0.293646
vt 0.186092 0.717109
vt 0.145303 0.717109
vt 0.135820 0.715923
vt 0.790372 0.351438
vt 0.798238 0.334715
vt 0.116854 0.715923
vt 0.790372 0.359061
vt 0.798238 0.375784
vt 0.107371 0.717109
vt 0.106657 0.623428
vt 0.114112 0.679128
vt 0.101887 0.680657
vt 0.086977 0.625890
vt 0.146017 0.623428
vt 0.138562 0.679128
vt 0.165697 0.625890
vt 0.150787 0.680657
vt 0.185378 0.623428
vt 0.192833 0.679128
vt 0.180607 0.680657
vt 0.224738 0.623428
vt 0.217283 0.679128
vt 0.244418 0.625890
vt 0.229508 0.680657
vn 0.4914 -0.0719 -0.8679
vn 0.9996 -0.0250 -0.0099
vn 0.4950 0.0482 0.8675
vn -0.4914 0.0764 0.8676
vn 0.2580 -0.8795 0.3999
vn -0.9993 0.0371 0.0064
vn -0.4961 -0.0398 -0.8674
vn 0.0000 -0.9977 0.0680
vn -0.1626 -0.9116 0.3775
vn -0.4085 0.5305 0.7427
vn 0.8766 0.4513 -0.1670
vn -0.8952 0.4425 0.0531
vn 0.4778 0.3993 -0.7824
vn 0.5205 0.4818 0.7049
vn -0.5332 0.3763 -0.7577
vn 0.3027 -0.9220 0.2414
vn -0.1003 -0.9670 -0.2344
vn -0.2147 -0.8918 0.3982
vn 0.0443 -0.9690 -0.2432
vn 0.6294 -0.7750 -0.0575
vn 0.4922 -0.0097 -0.8704
vn -0.5191 -0.5590 0.6466
vn -0.3371 -0.6912 0.6393
vn 0.3456 -0.7616 -0.5482
vn -0.7502 -0.6596 0.0449
vn -0.3902 0.3373 -0.8567
vn -0.4633 0.4297 0.7751
vn 0.9273 0.3414 0.1535
vn -0.8921 0.4264 0.1497
vn 0.4632 0.4297 0.7751
vn 0.4584 0.3218 -0.8284
vn -0.6498 -0.7550 0.0875
vn -0.3751 -0.6155 0.6932
vn 0.2875 -0.7054 0.6479
vn 0.2819 -0.6788 -0.6781
vn -0.0854 -0.8490 -0.5214
vn 0.7422 -0.6445 0.1836
vn 0.5781 0.3003 -0.7587
vn 0.3599 0.4131 0.8366
vn -0.9208 0.3892 -0.0265
vn 0.9976 0.0666 -0.0177
vn 0.9269 0.3573 -0.1152
vn -0.3599 0.4131 0.8366
vn 0.7214 -0.6909 0.0471
vn -0.7814 -0.6039 0.1572
vn 0.3635 -0.6423 0.6748
vn -0.2737 -0.6435 -0.7148
vn -0.2859 -0.6693 -0.6858
vn 0.2923 0.2276 0.9288
vn -0.4604 0.3350 -0.8221
vn -0.8951 0.3895 -0.2169
vn -0.5699 0.3351 0.7502
vn 0.9965 0.0832 -0.0057
vn 0.4920 0.1195 -0.8623
vn -0.5183 0.2875 -0.8054
vn 0.4969 0.1048 0.8615
vn -0.4931 0.0518 0.8684
vn 0.4969 -0.5511 -0.6704
vn -0.9988 -0.0457 0.0146
vn 0.4151 -0.5994 0.6844
vn -0.4984 -0.0697 -0.8641
vn -0.5024 0.0122 -0.8646
vn -0.9958 0.0899 -0.0144
vn -0.5088 0.1241 0.8519
vn 0.5101 0.1020 0.8541
vn 0.9990 0.0384 0.0214
vn 0.5096 -0.0228 -0.8601
vn -0.5056 -0.0072 -0.8627
vn -0.9998 0.0159 -0.0089
vn -0.5125 0.1184 0.8505
vn 0.5119 0.1665 0.8428
vn 0.9913 0.1304 0.0187
vn 0.5093 0.0637 -0.8582
usemtl Pine
s off
f 66/1/1 2/2/1 4/3/1 65/4/1
f 65/4/2 4/3/2 6/5/2 64/6/2
f 64/6/3 6/5/3 8/7/3 63/8/3
f 63/9/4 8/10/4 10/11/4 62/12/4
f 2/13/5 12/14/5 18/15/5 14/16/5
f 62/12/6 10/11/6 12/17/6 53/18/6
f 53/18/7 12/17/7 2/19/7 66/20/7
f 1/21/8 3/22/8 5/23/8 7/24/8 9/25/8 11/26/8
f 6/27/9 4/28/9 13/29/9 15/30/9
f 17/31/10 16/32/10 22/33/10 23/34/10
f 15/35/11 13/36/11 19/37/11 21/38/11
f 18/39/12 17/31/12 23/34/12 24/40/12
f 13/41/13 14/42/13 20/43/13 19/44/13
f 16/45/14 15/35/14 21/38/14 22/46/14
f 14/42/15 18/47/15 24/48/15 20/43/15
f 12/14/16 10/49/16 17/50/16 18/15/16
f 10/49/17 8/51/17 16/52/17 17/50/17
f 4/28/18 2/53/18 14/54/18 13/29/18
f 8/55/19 6/27/19 15/30/19 16/56/19
f 24/57/20 23/58/20 35/59/20 36/60/20
f 73/61/21 66/1/21 65/4/21 72/62/21
f 37/63/22 38/64/22 43/65/22 46/66/22
f 19/67/23 20/68/23 32/69/23 31/70/23
f 23/58/24 22/71/24 34/72/24 35/59/24
f 28/73/25 30/74/25 60/75/25 59/76/25
f 32/77/26 36/78/26 42/79/26 38/80/26
f 35/81/27 34/82/27 40/83/27 41/84/27
f 33/85/28 31/86/28 37/87/28 39/88/28
f 36/89/29 35/81/29 41/84/29 42/90/29
f 34/91/30 33/85/30 39/88/30 40/92/30
f 31/93/31 32/77/31 38/80/31 37/94/31
f 21/95/32 19/67/32 31/70/32 33/96/32
f 30/74/33 29/97/33 55/98/33 60/75/33
f 20/99/34 24/57/34 36/60/34 32/100/34
f 41/101/35 40/102/35 50/103/35 51/104/35
f 22/105/36 21/95/36 33/96/36 34/106/36
f 25/107/37 26/108/37 57/109/37 56/110/37
f 29/111/38 30/112/38 46/113/38 43/114/38
f 28/115/39 27/116/39 50/117/39 47/118/39
f 26/119/40 25/120/40 54/121/40 51/122/40
f 72/62/41 65/4/41 64/6/41 71/123/41
f 30/124/42 28/115/42 47/118/42 46/125/42
f 27/126/43 26/119/43 51/122/43 50/127/43
f 42/128/44 41/101/44 51/104/44 54/129/44
f 39/130/45 37/63/45 46/66/45 47/131/45
f 38/64/46 42/128/46 54/129/46 43/132/46
f 27/133/47 28/73/47 59/76/47 58/134/47
f 40/102/48 39/130/48 47/131/48 50/135/48
f 58/136/49 59/137/49 61/138/49
f 25/139/50 29/111/50 43/114/50 54/140/50
f 56/141/51 57/142/51 61/143/51
f 57/142/52 58/144/52 61/143/52
f 59/137/53 60/145/53 61/138/53
f 60/146/54 55/147/54 61/148/54
f 55/147/55 56/149/55 61/148/55
f 71/123/56 64/6/56 63/8/56 70/150/56
f 70/151/57 63/9/57 62/12/57 69/152/57
f 26/108/58 27/153/58 58/154/58 57/109/58
f 69/152/59 62/12/59 53/18/59 68/155/59
f 29/156/60 25/107/60 56/110/60 55/157/60
f 68/155/61 53/18/61 66/20/61 73/158/61
f 11/159/62 44/160/62 67/161/62 1/162/62
f 9/163/63 45/164/63 44/160/63 11/159/63
f 7/165/64 48/166/64 45/164/64 9/163/64
f 5/167/65 49/168/65 48/169/65 7/165/65
f 3/170/66 52/171/66 49/168/66 5/167/66
f 1/172/67 67/173/67 52/171/67 3/170/67
f 44/160/68 68/155/68 73/158/68 67/161/68
f 45/164/69 69/152/69 68/155/69 44/160/69
f 48/166/70 70/151/70 69/152/70 45/164/70
f 49/168/71 71/123/71 70/150/71 48/169/71
f 52/171/72 72/62/72 71/123/72 49/168/72
f 67/173/73 73/61/73 72/62/73 52/171/73
