# Blender v2.80 (sub 75) OBJ File: 'pine.blend'
# www.blender.org
mtllib Pine_5.mtl
o Pine_5
v 0.000000 -0.786988 -0.537105
v 0.510401 -0.766956 -0.243107
v 0.510401 -0.726892 0.344891
v 0.000000 -0.706860 0.638889
v -0.510401 -0.726892 0.344890
v -0.510401 -0.766956 -0.243107
v -0.360123 1.143162 -0.326137
v -0.369165 1.176835 0.168063
v 0.035373 1.193671 0.415163
v 0.438355 1.176835 0.168063
v 0.464355 1.143162 -0.326137
v -0.381804 3.386876 -0.408585
v -0.375539 3.410995 -0.054594
v -0.054199 3.423055 0.122401
v 0.261194 3.410995 -0.054594
v 0.253078 3.386876 -0.408585
v -0.068263 3.374816 -0.585580
v 0.059817 1.126326 -0.573237
v -0.348175 2.416150 -0.357191
v -0.345975 2.442269 0.026159
v -0.015415 2.455329 0.217834
v 0.313694 2.442269 0.026159
v 0.312108 2.416150 -0.357191
v -0.019067 2.403090 -0.548866
v -0.288170 6.874058 -0.589186
v -0.284798 6.894840 -0.284168
v -0.012460 6.905232 -0.131659
v 0.256676 6.894840 -0.284168
v 0.252306 6.874058 -0.589186
v -0.020031 6.863667 -0.741695
v 1.477719 5.120684 -0.872832
v 1.337175 4.961891 -0.750778
v 1.349188 4.950386 -0.506671
v 1.501745 5.097677 -0.384617
v 1.642289 5.256470 -0.506671
v 1.630276 5.267974 -0.750778
v 0.289078 4.635107 -1.354546
v 1.062860 5.517946 -2.113591
v 0.714819 4.250484 -0.242481
v 1.212276 5.374868 0.922585
v 2.141668 5.818388 0.162123
v 2.010984 6.434524 -1.116486
v 1.619727 4.012545 -0.906477
v 2.048756 3.983956 -1.079095
v 1.739814 3.880774 -0.561240
v 2.019795 3.968177 -0.387071
v 2.431207 4.068735 -0.559661
v 2.431111 4.104489 -0.906477
v 2.486460 1.810964 -0.916035
v 2.486887 1.803982 -0.813375
v 2.398154 1.795052 -0.762045
v 2.308993 1.793105 -0.813375
v 2.397300 1.809016 -0.967366
v 2.308567 1.800086 -0.916035
v 0.907471 4.201150 -1.296160
v 1.770854 4.639602 -1.910275
v 1.319888 3.960843 -0.069511
v 1.854057 4.494374 0.546182
v 2.758334 5.060673 -0.067932
v 2.955931 5.270326 -1.296160
v 2.529461 2.822109 -0.902128
v 2.634378 2.799265 -0.971525
v 2.409068 2.826864 -0.750972
v 2.433608 2.805090 -0.670895
v 2.592211 2.772748 -0.740709
v 2.653054 2.814293 -0.892646
v 2.123555 3.647875 -1.620207
v 1.432219 3.595878 -1.115604
v 1.439391 3.408944 -0.376511
v 2.132162 3.609165 -0.060787
v 2.789022 3.721364 -0.376511
v 2.890961 3.765849 -1.205642
v 2.366981 2.304872 -1.386076
v 2.847368 2.315367 -1.109511
v 2.838326 2.463250 -0.555750
v 2.371580 2.229637 -0.279820
v 1.891192 2.219142 -0.556383
v 1.888892 2.256760 -1.109512
v 2.822419 0.715158 -0.934024
v 0.849459 6.737086 -0.726587
v 1.033846 6.915243 -0.580432
v 1.046525 6.899686 -0.288122
v 0.874400 6.705536 -0.141967
v 0.689509 6.526853 -0.288122
v 0.677334 6.542936 -0.580432
v 0.669562 7.250884 -0.585536
v 0.682240 7.234073 -0.280518
v 0.501390 7.030187 -0.128009
v 0.476607 7.064405 -0.738046
v -0.386225 4.258519 -0.467375
v -0.381021 4.282557 -0.114578
v -0.063099 4.294576 0.061820
v 0.249883 4.282557 -0.114578
v 0.243140 4.258519 -0.467375
v -0.074782 4.246500 -0.643773
v 1.324299 5.274220 -0.799301
v 1.440466 5.386390 -0.706484
v 1.449447 5.377480 -0.520851
v 1.342223 5.256362 -0.428035
v 1.226010 5.144146 -0.520851
v 1.217075 5.153102 -0.706484
v -0.006620 5.423898 -0.687826
v -0.298582 5.435184 -0.522175
v -0.294202 5.457758 -0.190872
v 0.003213 5.469045 -0.025221
v 0.296469 5.457758 -0.190872
v 0.290794 5.435184 -0.522175
vt 0.278505 0.623428
vt 0.312592 0.640243
vt 0.312592 0.673874
vt 0.278505 0.690689
vt 0.244418 0.673874
vt 0.244418 0.640243
vt 0.224024 0.717109
vt 0.222571 0.756212
vt 0.213815 0.755116
vt 0.214541 0.715923
vt 0.196301 0.755116
vt 0.195575 0.715923
vt 0.187544 0.756212
vt 0.186092 0.717109
vt 0.145303 0.717109
vt 0.143851 0.756212
vt 0.135094 0.755116
vt 0.135820 0.715923
vt 0.117580 0.755116
vt 0.116854 0.715923
vt 0.108824 0.756212
vt 0.107371 0.717109
vt 0.106657 0.623428
vt 0.114112 0.679128
vt 0.101887 0.680657
vt 0.086977 0.625890
vt 0.146017 0.623428
vt 0.138562 0.679128
vt 0.165697 0.625890
vt 0.150787 0.680657
vt 0.185378 0.623428
vt 0.192833 0.679128
vt 0.180607 0.680657
vt 0.224738 0.623428
vt 0.217283 0.679128
vt 0.244418 0.625890
vt 0.229508 0.680657
vt 0.222479 0.780728
vt 0.222439 0.791482
vt 0.213748 0.790395
vt 0.213768 0.779638
vt 0.196367 0.790395
vt 0.196347 0.779638
vt 0.187677 0.791482
vt 0.187636 0.780728
vt 0.143759 0.780728
vt 0.143718 0.791482
vt 0.135028 0.790395
vt 0.135048 0.779638
vt 0.117647 0.790395
vt 0.117626 0.779638
vt 0.108956 0.791482
vt 0.108916 0.780728
vt 0.222250 0.841827
vt 0.222222 0.849043
vt 0.213640 0.847969
vt 0.213654 0.840751
vt 0.196475 0.847969
vt 0.196462 0.840751
vt 0.187893 0.849043
vt 0.187866 0.841827
vt 0.143529 0.841827
vt 0.143502 0.849043
vt 0.134920 0.847969
vt 0.134933 0.840751
vt 0.766730 0.228225
vt 0.760162 0.232756
vt 0.717657 0.209108
vt 0.758502 0.180929
vt 0.117755 0.847969
vt 0.117741 0.840751
vt 0.109172 0.849043
vt 0.109145 0.841827
vt 0.809210 0.232756
vt 0.809210 0.241818
vt 0.766730 0.265466
vt 0.766730 0.209108
vt 0.640879 0.224382
vt 0.677583 0.180929
vt 0.717657 0.241528
vt 0.709310 0.251410
vt 0.719594 0.145945
vt 0.756298 0.102491
vt 0.796372 0.163091
vt 0.788025 0.172973
vt 0.638942 0.259366
vt 0.708870 0.259366
vt 0.638942 0.180929
vt 0.640879 0.145945
vt 0.709310 0.172973
vt 0.708870 0.180929
vt 0.717657 0.180929
vt 0.787585 0.180929
vt 0.677583 0.102491
vt 0.717657 0.163091
vt 0.760162 0.241818
vt 0.717657 0.265466
vt 0.766730 0.246350
vt 0.758502 0.293646
vt 0.815768 0.246350
vt 0.807517 0.293646
vt 0.815768 0.228225
vt 0.807517 0.180929
vt 0.915192 0.311313
vt 0.915192 0.324130
vt 0.879208 0.340520
vt 0.879208 0.294923
vt 0.677104 0.371835
vt 0.673145 0.369100
vt 0.683862 0.343790
vt 0.706138 0.359180
vt 0.916404 0.232935
vt 0.925680 0.239343
vt 0.912207 0.272124
vt 0.879208 0.249325
vt 0.924480 0.330538
vt 0.912254 0.363319
vt 0.810363 0.312275
vt 0.810363 0.316086
vt 0.790372 0.324448
vt 0.790372 0.303913
vt 0.657224 0.270742
vt 0.702382 0.259366
vt 0.702382 0.339786
vt 0.696964 0.341150
vt 0.834050 0.276728
vt 0.879208 0.265352
vt 0.879208 0.345772
vt 0.873790 0.347137
vt 0.834050 0.192305
vt 0.879208 0.180929
vt 0.879208 0.261348
vt 0.873790 0.262713
vt 0.815768 0.298726
vt 0.871597 0.349776
vt 0.815768 0.214303
vt 0.871597 0.265352
vt 0.638942 0.292740
vt 0.694771 0.343790
vt 0.916404 0.220118
vt 0.879208 0.203728
vt 0.813121 0.317992
vt 0.805233 0.334715
vt 0.924480 0.304905
vt 0.912254 0.272124
vt 0.669180 0.377306
vt 0.673145 0.380041
vt 0.661250 0.405352
vt 0.638942 0.389961
vt 0.925680 0.213710
vt 0.912207 0.180929
vt 0.793135 0.357155
vt 0.793135 0.353344
vt 0.813120 0.344982
vt 0.813120 0.365517
vt 0.756519 0.346948
vt 0.755007 0.348799
vt 0.717657 0.316532
vt 0.729868 0.301579
vt 0.835234 0.155794
vt 0.833722 0.157645
vt 0.796372 0.125378
vt 0.808583 0.110425
vt 0.877861 0.155794
vt 0.876349 0.157645
vt 0.839000 0.125378
vt 0.851211 0.110425
vt 0.839000 0.154811
vt 0.839000 0.102491
vt 0.881627 0.154811
vt 0.881627 0.102491
vt 0.669180 0.371835
vt 0.638942 0.359180
vt 0.677104 0.377306
vt 0.706138 0.389961
vt 0.661250 0.343790
vt 0.813121 0.310369
vt 0.805233 0.293646
vt 0.683862 0.405352
vt 0.881627 0.114356
vt 0.890925 0.105396
vt 0.911715 0.175091
vt 0.760285 0.345966
vt 0.760285 0.293646
vt 0.911715 0.114356
vt 0.921013 0.105396
vt 0.941803 0.175091
vt 0.941803 0.102491
vt 0.911715 0.102491
vt 0.760285 0.305511
vt 0.769583 0.296550
vt 0.790372 0.366245
vt 0.790372 0.293646
vt 0.790372 0.351438
vt 0.798238 0.334715
vt 0.790372 0.359061
vt 0.798238 0.375784
vt 0.117647 0.790395
vt 0.117673 0.804166
vt 0.109008 0.805251
vt 0.108956 0.791482
vt 0.135028 0.790395
vt 0.135002 0.804166
vt 0.143718 0.791482
vt 0.143666 0.805251
vt 0.196393 0.804167
vt 0.187728 0.805251
vt 0.187677 0.791482
vt 0.213722 0.804167
vt 0.222439 0.791482
vt 0.222387 0.805251
vt 0.117610 0.770841
vt 0.108883 0.771933
vt 0.135064 0.770841
vt 0.143792 0.771933
vt 0.196331 0.770841
vt 0.187603 0.771933
vt 0.213785 0.770841
vt 0.222512 0.771933
vn 0.0000 -0.9977 0.0680
vn 0.4922 -0.0121 -0.8704
vn 0.9983 0.0563 -0.0170
vn 0.4969 0.1018 0.8618
vn -0.4931 0.0615 0.8678
vn -0.9994 -0.0316 0.0136
vn -0.4985 -0.0605 -0.8648
vn -0.5027 0.0007 -0.8644
vn -0.9971 0.0753 -0.0135
vn -0.5091 0.1135 0.8532
vn 0.5102 0.0949 0.8548
vn 0.9992 0.0324 0.0218
vn 0.5097 -0.0286 -0.8599
vn -0.5058 -0.0155 -0.8625
vn -0.9999 0.0132 -0.0087
vn -0.5128 0.1087 0.8516
vn 0.5128 0.1491 0.8455
vn 0.9938 0.1098 0.0202
vn 0.5104 0.0440 -0.8588
vn 0.4882 -0.0278 -0.8723
vn 0.9995 0.0262 -0.0176
vn 0.4932 0.0698 0.8671
vn -0.4884 0.0595 0.8706
vn -0.9999 0.0075 0.0117
vn -0.4947 -0.0370 -0.8683
vn -0.5451 -0.1506 -0.8247
vn -0.8447 -0.5350 0.0157
vn -0.4620 -0.2306 0.8564
vn 0.2249 0.4602 0.8589
vn -0.8143 0.4072 0.4137
vn 0.5312 0.8471 0.0143
vn 0.1426 0.5395 -0.8298
vn -0.5356 0.7483 0.3914
vn 0.6205 -0.2604 0.7397
vn -0.3731 -0.9096 -0.1826
vn 0.9849 0.1726 -0.0100
vn -0.1221 -0.6480 -0.7518
vn -0.0781 -0.7163 0.6934
vn 0.6608 -0.0013 -0.7505
vn -0.8800 0.4044 0.2491
vn -0.6228 0.7418 -0.2488
vn -0.4827 0.7726 0.4124
vn -0.7291 0.6339 -0.2581
vn -0.9276 0.3690 -0.0588
vn 0.3972 0.7056 0.5868
vn 0.0586 0.8427 0.5352
vn -0.6146 0.5736 -0.5415
vn 0.7263 0.6860 0.0436
vn 0.5613 -0.1792 -0.8080
vn 0.6158 -0.2850 0.7345
vn -0.6786 -0.7342 0.0183
vn 0.9807 -0.1063 0.1643
vn -0.2886 -0.6459 0.7068
vn -0.3064 -0.5563 -0.7724
vn 0.2408 0.9596 0.1456
vn 0.3464 0.6175 0.7062
vn -0.5685 0.5098 0.6457
vn -0.4210 0.4214 -0.8032
vn -0.2160 0.8633 -0.4561
vn -0.8433 0.5230 -0.1233
vn -0.5258 -0.3484 -0.7760
vn -0.3068 -0.3897 0.8683
vn 0.9785 -0.1822 0.0965
vn -0.8888 -0.4482 -0.0952
vn 0.4602 -0.2631 0.8479
vn -0.9643 0.2244 -0.1403
vn 0.5459 0.8045 0.2341
vn -0.5412 0.3309 0.7730
vn 0.3409 0.7076 -0.6189
vn 0.2121 0.6877 -0.6944
vn -0.4346 -0.4631 0.7725
vn 0.4897 -0.2261 -0.8421
vn 0.9997 -0.0134 0.0199
vn 0.5656 -0.1793 0.8049
vn -0.8533 -0.5204 -0.0318
vn -0.4398 -0.3600 -0.8228
vn 0.4980 -0.1022 -0.8611
vn -0.5878 0.5657 -0.5783
vn -0.4190 0.5707 0.7062
vn 0.3416 0.3582 -0.8689
vn 0.6769 0.7360 0.0111
vn 0.3404 0.3523 0.8718
vn -0.3191 -0.3935 0.8622
vn -0.6316 -0.7749 0.0236
vn -0.2890 -0.3772 -0.8799
vn -0.4931 -0.0613 -0.8678
vn -0.9999 -0.0046 0.0165
vn -0.4847 0.0564 0.8729
vn 0.4910 0.0658 0.8686
vn 0.9997 0.0107 -0.0217
vn 0.4847 -0.0540 -0.8730
vn 0.4846 0.1994 -0.8517
vn 0.9652 0.2597 -0.0305
vn 0.6197 0.0448 0.7835
vn -0.3982 -0.3000 0.8669
vn -0.9310 -0.3643 0.0220
vn -0.5493 -0.1380 -0.8241
vn -0.4933 -0.0039 -0.8699
vn -0.9972 0.0745 0.0089
vn -0.4865 0.0921 0.8688
vn 0.4921 0.0368 0.8697
vn 0.9990 -0.0409 -0.0153
vn 0.4867 -0.0605 -0.8715
vn -0.6469 0.7610 0.0489
vn 0.0000 0.9977 -0.0680
usemtl Pine
s off
f 1/1/1 2/2/1 3/3/1 4/4/1 5/5/1 6/6/1
f 24/7/2 17/8/2 16/9/2 23/10/2
f 23/10/3 16/9/3 15/11/3 22/12/3
f 22/12/4 15/11/4 14/13/4 21/14/4
f 21/15/5 14/16/5 13/17/5 20/18/5
f 20/18/6 13/17/6 12/19/6 19/20/6
f 19/20/7 12/19/7 17/21/7 24/22/7
f 6/23/8 7/24/8 18/25/8 1/26/8
f 5/27/9 8/28/9 7/24/9 6/23/9
f 4/29/10 9/30/10 8/28/10 5/27/10
f 3/31/11 10/32/11 9/33/11 4/29/11
f 2/34/12 11/35/12 10/32/12 3/31/12
f 1/36/13 18/37/13 11/35/13 2/34/13
f 7/24/14 19/20/14 24/22/14 18/25/14
f 8/28/15 20/18/15 19/20/15 7/24/15
f 9/30/16 21/15/16 20/18/16 8/28/16
f 10/32/17 22/12/17 21/14/17 9/33/17
f 11/35/18 23/10/18 22/12/18 10/32/18
f 18/37/19 24/7/19 23/10/19 11/35/19
f 102/38/20 30/39/20 29/40/20 107/41/20
f 107/41/21 29/40/21 28/42/21 106/43/21
f 106/43/22 28/42/22 27/44/22 105/45/22
f 105/46/23 27/47/23 26/48/23 104/49/23
f 104/49/24 26/48/24 25/50/24 103/51/24
f 103/51/25 25/50/25 30/52/25 102/53/25
f 96/54/26 31/55/26 32/56/26 101/57/26
f 101/57/27 32/56/27 33/58/27 100/59/27
f 100/59/28 33/58/28 34/60/28 99/61/28
f 99/62/29 34/63/29 35/64/29 98/65/29
f 31/66/30 36/67/30 42/68/30 38/69/30
f 98/65/31 35/64/31 36/70/31 97/71/31
f 97/71/32 36/70/32 31/72/32 96/73/32
f 33/74/33 32/75/33 37/76/33 39/77/33
f 41/78/34 40/79/34 46/80/34 47/81/34
f 39/82/35 37/83/35 43/84/35 45/85/35
f 42/86/36 41/78/36 47/81/36 48/87/36
f 37/88/37 38/89/37 44/90/37 43/91/37
f 40/92/38 39/82/38 45/85/38 46/93/38
f 38/89/39 42/94/39 48/95/39 44/90/39
f 36/67/40 35/96/40 41/97/40 42/68/40
f 35/96/41 34/98/41 40/99/41 41/97/41
f 32/75/42 31/100/42 38/101/42 37/76/42
f 34/102/43 33/74/43 39/77/43 40/103/43
f 48/104/44 47/105/44 59/106/44 60/107/44
f 61/108/45 62/109/45 67/110/45 68/111/45
f 43/112/46 44/113/46 56/114/46 55/115/46
f 47/105/47 46/116/47 58/117/47 59/106/47
f 52/118/48 54/119/48 78/120/48 77/121/48
f 56/122/49 60/123/49 66/124/49 62/125/49
f 59/126/50 58/127/50 64/128/50 65/129/50
f 57/130/51 55/131/51 61/132/51 63/133/51
f 60/134/52 59/126/52 65/129/52 66/135/52
f 58/136/53 57/130/53 63/133/53 64/137/53
f 55/138/54 56/122/54 62/125/54 61/139/54
f 45/140/55 43/112/55 55/115/55 57/141/55
f 54/119/56 53/142/56 73/143/56 78/120/56
f 44/144/57 48/104/57 60/107/57 56/145/57
f 65/146/58 64/147/58 70/148/58 71/149/58
f 46/150/59 45/140/59 57/141/59 58/151/59
f 49/152/60 50/153/60 75/154/60 74/155/60
f 53/156/61 54/157/61 68/158/61 67/159/61
f 52/160/62 51/161/62 70/162/62 69/163/62
f 50/164/63 49/165/63 72/166/63 71/167/63
f 54/168/64 52/160/64 69/163/64 68/169/64
f 51/170/65 50/164/65 71/167/65 70/171/65
f 66/172/66 65/146/66 71/149/66 72/173/66
f 63/174/67 61/108/67 68/111/67 69/175/67
f 62/109/68 66/172/68 72/173/68 67/176/68
f 51/177/69 52/118/69 77/121/69 76/178/69
f 64/147/70 63/174/70 69/175/70 70/179/70
f 76/180/71 77/181/71 79/182/71
f 49/183/72 53/156/72 67/159/72 72/184/72
f 74/185/73 75/186/73 79/187/73
f 75/186/74 76/188/74 79/187/74
f 77/181/75 78/189/75 79/182/75
f 78/190/76 73/191/76 79/192/76
f 73/191/77 74/193/77 79/192/77
f 50/153/78 51/194/78 76/195/78 75/154/78
f 53/196/79 49/152/79 74/155/79 73/197/79
f 86/198/80 81/199/80 80/200/80 89/201/80
f 87/202/81 82/203/81 81/199/81 86/198/81
f 88/204/82 83/205/82 82/203/82 87/202/82
f 28/42/83 84/206/83 83/207/83 88/208/83
f 29/40/84 85/209/84 84/206/84 28/42/84
f 89/210/85 80/211/85 85/209/85 29/40/85
f 12/19/86 90/212/86 95/213/86 17/21/86
f 13/17/87 91/214/87 90/212/87 12/19/87
f 14/16/88 92/215/88 91/214/88 13/17/88
f 15/11/89 93/216/89 92/217/89 14/13/89
f 16/9/90 94/218/90 93/216/90 15/11/90
f 17/8/91 95/219/91 94/218/91 16/9/91
f 81/199/92 97/71/92 96/73/92 80/200/92
f 82/203/93 98/65/93 97/71/93 81/199/93
f 83/205/94 99/62/94 98/65/94 82/203/94
f 84/206/95 100/59/95 99/61/95 83/207/95
f 85/209/96 101/57/96 100/59/96 84/206/96
f 80/211/97 96/54/97 101/57/97 85/209/97
f 90/212/98 103/51/98 102/53/98 95/213/98
f 91/214/99 104/49/99 103/51/99 90/212/99
f 92/215/100 105/46/100 104/49/100 91/214/100
f 93/216/101 106/43/101 105/45/101 92/217/101
f 94/218/102 107/41/102 106/43/102 93/216/102
f 95/219/103 102/38/103 107/41/103 94/218/103
f 89/201/104 29/40/104 28/42/104 88/204/104 87/202/104 86/198/104
f 30/52/105 25/50/105 26/48/105 27/47/105 28/42/105 29/40/105
